<svg xmlns="http://www.w3.org/2000/svg" width="1869" height="1520" viewBox="0 0 1869 1520">
  <defs>
    <style>
      .cls-1 {
        fill: #c3e3f1;
      }

      .cls-1, .cls-2 {
        fill-rule: evenodd;
      }

      .cls-2 {
        fill: #fff;
      }
    </style>
  </defs>
  <path id="색상_칠_2" data-name="색상 칠 2" class="cls-1" d="M0,0H1869V447c-3.68-.379-8.35-1.378-13,0v1h-6v1h-3v1h-4c-0.33.667-.67,1.333-1,2l-6,1c-0.33.667-.67,1.333-1,2h-2c-0.33.667-.67,1.333-1,2h-3v1a8.873,8.873,0,0,1-4,2v2h-2v2h-3v2c-3.22.738-3.64,1.357-4,5-4.07,1.2-1.33.691-3,3-0.67.333-1.33,0.667-2,1v2l-3,2v3c-0.67.333-1.33,0.667-2,1v3c-0.67.333-1.33,0.667-2,1v3h-1v2h-1v3h-1v6h-1v3h-1v17h1q1.005,7,2,14c-6.34-.389-9.3-3.518-14-5l-12,1c-0.33.667-.67,1.333-1,2h-5v1a9.144,9.144,0,0,1-4,2v2h-2c-1.33,4.942-4.19,3.187-5,9h-6c-0.48-4.507-3.01-6.677-4-11l-3-1v-2h-2v-3c-6.24-3.646-9.32-11.938-17-14v-2c-2.27-.277-2.6-0.132-4-1v-1h-3c-0.67-1-1.33-2-2-3h-3c-0.33-.667-0.67-1.333-1-2h-4c-0.33-.667-0.67-1.333-1-2h-4v-1h-3v-1h-3v-1h-10v-1h-15v1h-10v1h-2v1l-8,1v2h-5c-0.33.667-.67,1.333-1,2h-3v1c-1.87,1.336-1.93,1.545-5,2v2c-4.83.564-2.94,1.879-7,3v2h-3c-2.46,4.181-7.61,5.884-9,11h-2v3h-2c-0.91,3.515-2.43,2.853-3,7h-2c-0.22,2.285-.15,2.6-1,4h-1v3h-1c-0.33,1.333-.67,2.667-1,4h-1v3c-0.67.333-1.33,0.667-2,1v4h-1v2h-1v5h-1c-1.26,4.114.47,8.364-2,11v1h-8c-2.86-3.289-5.39-1.565-10-3v-1c-7.32-2.352-27.6-1.2-34,1v1h-4c-0.33.667-.67,1.333-1,2h-5c-0.33.667-.67,1.333-1,2l-6,1v2c-4.34.488-2.64,1.423-7,2v2c-3.38.7-3.85,2.168-7,3v2h-2v2h-2c-1.21,2.128-2.25,2.177-3,5-2.76.723-2.24,0.279-3,3h-2v2h-2v3h-2c-0.67,2-1.33,4-2,6l-3,2v3c-0.67.333-1.33,0.667-2,1-0.33,2-.67,4-1,6h-1v2h-1v3h-1v2h-1q-1.005,7-2,14l-6-1v-1h-5v-1h-2v-1l-13-1v-1h-5v1h-7v1h-7c-0.33.667-.67,1.333-1,2h-5v1h-2v1c-1.67.333-3.33,0.667-5,1v2h-3c-1.97,3-2.83.941-4,5h-3c-2.46,4.181-7.61,5.884-9,11h-2v3h-2v2h-2c-0.64,6.893-5.16,9.854-6,17-6.21,1.076-19.32-.1-26-2h-10v-1h-12v-1h-9v-1h-21v-1h-7v-1h-15v-1h-12v-1h-12v-1h-11a59.06,59.06,0,0,1-16-2h-27v-1l-22-1h-11v-1h-16v-1c-5.77-1.626-14.85.451-20-1h-33v-1h-16c-7.21-2.027-19.09-1-28-1l-45-1c-10.39,0-24.37,1.422-33-1H905c-9.207,0-21.5-1.1-29,1H845l-46,1c-9.205,0-21.5-1.107-29,1H754v1H721c-5.153,1.455-14.233-.629-20,1v1l-23,1H667v1H652v1H625a58.992,58.992,0,0,1-16,2H598v1H586v1H574v1H559v1h-7v1H531v1h-9v1H510v1H500c-6.794,1.924-19.668,3-26,2-0.6-7.155-5.123-10.039-6-17h-2v-2h-2v-3h-2v-2c-4.457-2.647-5.824-8.185-12-9-1.03-4.047-.443-1.263-3-3v-1c-1.317-.916-1.77-0.788-4-1v-2l-5-1v-1h-2v-1h-5l-1-2h-7v-1h-7v-1h-5v1l-13,1v1h-2v1h-5v1l-6,1q-1-7-2-14h-1v-2h-1v-3h-1v-2h-1q-0.5-3-1-6l-2-1v-3l-3-2-2-6h-2v-3h-2v-2h-2c-0.723-2.762-.279-2.237-3-3v-2c-2.128-1.212-2.177-2.252-5-3v-2h-2v-2c-3.16-.763-3.65-2.227-7-3v-2c-4.336-.488-2.641-1.423-7-2v-2l-6-1-1-2h-5l-1-2h-4v-1h-4v-1h-5v-1h-9l-16,1v1h-5v1h-3v1h-2v1h-8c-0.844-1.135.127-.145-1-1q-1-8-2-16h-1v-2h-1v-4l-2-1v-3h-1l-1-4h-1v-3h-1c-0.87-1.422-.673-1.731-1-4h-2c-0.564-4.827-1.879-2.94-3-7h-2v-3h-2v-2c-4.457-2.647-5.824-8.185-12-9v-2c-3.515-.915-2.853-2.433-7-3v-2c-3.077-.387-3.148-0.681-5-2v-1h-3l-1-2h-5v-2l-8-1v-1h-2v-1H198v-1H183v1H173v1h-3v1h-3v1h-4l-1,2h-4l-1,2h-3l-2,3h-3v1c-1.41.874-1.73,0.7-4,1v2h-2c-3.387,5.5-14.007,9.448-15,17h-2v2c-2.762.723-2.237,0.279-3,3-2.325,2-.673,2.386-2,5h-1c-0.856,1.406-.744,1.719-1,4h-6v-3h-1c-1.591-2.262-3.128-2.917-4-6h-2v-2a9.231,9.231,0,0,1-4-2v-1H97l-1-2-12-1c-4.7,1.5-7.665,4.6-14,5l2-14h1V504H72v-3H71v-6H70v-3H69v-2H68v-3l-2-1v-3l-2-1v-3l-3-2v-2l-2-1c-1.866-2.574,1.078-1.829-3-3v-3c-1.8-.945-1.575-1.385-4-2v-2H49v-2H47v-2a8.317,8.317,0,0,1-4-2v-1H40l-1-2H37l-1-2-6-1-1-2H25v-1H22v-1H16v-1H9v-1l-9,1V0Z"/>
  <path id="색상_칠_1" data-name="색상 칠 1" class="cls-2" d="M0,445c17.678-.482,28.573,2.5,39,9h2v1h2l1,2c3.527,2.351,6.787,2.26,8,7,3.087,0.7,4.254,1.949,5,5h2v2h2l1,3h1v2h1v2l2,1v2l2,1v3h1v2h1v3h1v5l2,1v8h1v4h1l-1,13H73v8H72c-0.811,1.449-.724,1.7-1,4,2.282-.291,2.577-0.147,4-1v-1h3v-1h7c5.6-1.577,10.963.439,17,1v2h3c1.973,3,2.825.941,4,5h2v2h2c0.463,2.391,1.158,3.145,2,5,2.01-.574.865,0.12,2-1,2.317-2.015.662-2.4,2-5h1l1-3h2v-3c2.128-1.212,2.177-2.252,5-3v-3c5.115-2.987,7.636-9.292,14-11v-2h3v-2c4.045-.877,4.092-2.654,9-3v-2c2.282-.288,2.579-0.147,4-1v-1h3v-1h5l1-2h6l1-2h12v-1c3.027-.842,7.491.579,9,1h12l1,2h6l1,2,8,1v2h4v2l9,3v2h3v2c2.594,0.637,3.278,1.583,5,3v1h2q0.5,1,1,2c2.536,2.412,5.025,3.952,6,8h2l1,3,2,1v2l2,1a14.289,14.289,0,0,1,3,8h2v4h2c0.213,4.9,1.929,5.73,3,9v7h1v2h1v10c3.16,0.113,1.874,1.955,3-1l9-1v-1h2v-1l13-1v-1h12v1h4v1h8v1h2v1h5v1h4v1c1.538,0.887,2.428.827,5,1v2c4.9,0.226,5,2.054,9,3v2c5.013,0.594,5.534,3.794,10,5v2h2v2c3.087,0.705,4.254,1.949,5,5h2v2h2c0.763,3.16,2.227,3.65,3,7h2v3h2l3,9,2,1v4l2,1v4h1v2h1q0.5,6,1,12h5v-2c3.152-.094,4.77-0.064,7-1v-1l25-1v1h6v1c2.229,0.937,3.849.906,7,1v2l7,1,1,2h2v1c1.372,0.925,1.762.677,4,1v2c4.117,1.009,5.04,3.9,9,5v2h2c1.508,5.8,7.076,7.261,8,14h2v3h2c0.154,5.139,2.056,6.9,3,11h3v-1h14v-1h17v-1h6v-1h17v-1h4v-1h17v-1h5v-1h17v-1h11c8.071,0,14.2-.336,20-2h20c5.114-1.458,10.94-2,18-2h11v-1h13v-1h22c8.545-2.408,21.747-.537,32-1l13-1v-1h36v-1h15v-1l181-1h66v1h15c11.27,0,26.53-1.662,36,1h15v1h14c11.25,0,23.21-.477,32,2h35c5.89,1.666,15.97-.706,22,1v1h13c5.88,1.663,16-.711,22,1v1h7c5.15,1.482,14.26-.652,20,1v1h6v1l42,1v1h5v1h17v1h4v1h17v1l40,3c0.85-4.15,2.69-5.847,3-11h2v-3h2c0.76-6.64,6.39-8.257,8-14h2v-2c3.97-1.017,4.91-3.913,9-5v-2c2.24-.266,2.64-0.089,4-1v-1h2c0.33-.667.67-1.333,1-2l7-1v-2c3.15-.094,4.77-0.064,7-1v-1l25-1v1h6v1c2.23,0.937,3.85.906,7,1v2h5q0.495-6,1-12h1v-2h1v-4c0.67-.333,1.33-0.667,2-1v-4c0.67-.333,1.33-0.667,2-1l3-9h2v-3h2c0.7-3.377,2.17-3.852,3-7h2v-2h2c0.71-3.087,1.95-4.254,5-5v-2h2v-2c4.52-1.134,4.97-4.29,10-5v-2c4.04-.877,4.09-2.654,9-3v-2c2.57-.164,3.46-0.115,5-1v-1h4v-1h5v-1h2v-1h8v-1h4v-1h12v1l13,1v1h2v1l9,1v2l3-1V567h1v-2h1v-7c1.15-3.486,2.63-3.785,3-9h2v-4h2a13.9,13.9,0,0,1,3-8c0.67-.333,1.33-0.667,2-1v-2c0.67-.333,1.33-0.667,2-1,0.33-1,.67-2,1-3h2c0.94-4.046,3.48-5.6,6-8,0.33-.667.67-1.333,1-2h2v-1c1.72-1.425,2.41-2.341,5-3v-2h3v-2l9-3v-2h4v-2l8-1c0.33-.667.67-1.333,1-2h6c0.33-.667.67-1.333,1-2h12c1.51-.418,5.98-1.846,9-1v1h12c0.33,0.667.67,1.333,1,2h6c0.33,0.667.67,1.333,1,2h5v1h3v1c1.42,0.855,1.72.706,4,1v2c4.9,0.226,5,2.054,9,3v2h3v2c4.39,1.038,13.45,9.1,14,14,3.39,0.76,4.62,2.141,5,6h2q1.995,4.5,4,9c2.01-.574.87,0.12,2-1,1.36-1.166,1.53-1.825,2-4h2v-2h2c1.03-4.047.44-1.263,3-3v-1c1.32-.916,1.77-0.788,4-1v-2c6.01-.6,11.44-2.58,17-1h7v1h3v1c1.42,0.856,1.72.7,4,1-0.31-2.295-.18-2.545-1-4h-1v-8h-1q-0.495-6.5-1-13h1v-4h1v-8c0.67-.333,1.33-0.667,2-1v-5h1v-3h1v-2h1v-3c0.67-.333,1.33-0.667,2-1v-2c0.67-.333,1.33-0.667,2-1v-2h1v-2h1c0.33-1,.67-2,1-3h2v-2h2c0.71-3.087,1.95-4.254,5-5,1.3-4.733,4.42-4.631,8-7,0.33-.667.67-1.333,1-2h2v-1h2c9.94-6.141,19.56-9.016,36-9V1520H0V445Z"/>
</svg>
